<svg xmlns="http://www.w3.org/2000/svg" version="1.1" xmlns:xlink="http://www.w3.org/1999/xlink" xmlns:svgjs="http://svgjs.com/svgjs" width="1280" height="720" preserveAspectRatio="none" viewBox="0 0 1280 720"><g mask="url(&quot;#SvgjsMask1022&quot;)" fill="none"><rect width="1280" height="720" x="0" y="0" fill="#0e2a47"></rect><path d="M1079.12 371.45a12.98 12.98 0 1 0 17.81-18.9z" stroke="#037b0b"></path><path d="M602.51 550.65L656.91 550.65L656.91 562.8L602.51 562.8z" fill="#e73635"></path><path d="M656.03 673.47 a62.66 62.66 0 1 0 125.32 0 a62.66 62.66 0 1 0 -125.32 0z" fill="#e73635"></path><path d="M995 210.38 a41.05 41.05 0 1 0 82.1 0 a41.05 41.05 0 1 0 -82.1 0z" fill="#e73635"></path><path d="M357.72 619.93L365.53 619.93L365.53 627.74L357.72 627.74z" fill="#e73635"></path><path d="M474.03 268.71L506.61 268.71L506.61 301.29L474.03 301.29z" fill="#037b0b"></path><path d="M1169.25 512.75a8.59 8.59 0 1 0-16.35 5.28z" fill="#037b0b"></path><path d="M311.35 171.1a60.59 60.59 0 1 0 74.61-95.49z" fill="#e73635"></path><path d="M613.37 84.15 a58.81 58.81 0 1 0 117.62 0 a58.81 58.81 0 1 0 -117.62 0z" fill="#037b0b"></path><path d="M558.29 604.48 a39.76 39.76 0 1 0 79.52 0 a39.76 39.76 0 1 0 -79.52 0z" stroke="#037b0b"></path><path d="M-47.7 236.68a65.39 65.39 0 1 0 130.52-8.24z" fill="#d3b714"></path><path d="M491.97 477.39L560.88 477.39L560.88 514.02L491.97 514.02z" stroke="#037b0b"></path><path d="M127.75 85.47a71.13 71.13 0 1 0 20.16-140.83z" fill="#e73635"></path><path d="M137.76 334.5L167.6 334.5L167.6 366.55L137.76 366.55z" stroke="#d3b714"></path><path d="M157.06 333.79L162.21 333.79L162.21 366.75L157.06 366.75z" fill="#d3b714"></path><path d="M78.99 377.47L92.5 377.47L92.5 430.98L78.99 430.98z" fill="#d3b714"></path><path d="M1108.7 348.38a19.99 19.99 0 1 0-37.67 13.4z" stroke="#e73635"></path><path d="M965.85 124.42L1029.86 124.42L1029.86 188.43L965.85 188.43z" fill="#037b0b"></path><path d="M215.9 221.27L247.87 221.27L247.87 235.94L215.9 235.94z" stroke="#037b0b"></path><path d="M754.81 564.19a53.66 53.66 0 1 0 78.84-72.82z" stroke="#e73635"></path><path d="M251.51 701.96L292.76 701.96L292.76 710.09L251.51 710.09z" fill="#d3b714"></path><path d="M753.13 638.4 a15.67 15.67 0 1 0 31.34 0 a15.67 15.67 0 1 0 -31.34 0z" stroke="#e73635"></path><path d="M246.7 317.52 a48.95 48.95 0 1 0 97.9 0 a48.95 48.95 0 1 0 -97.9 0z" stroke="#e73635"></path></g><defs><mask id="SvgjsMask1022"><rect width="1280" height="720" fill="#ffffff"></rect></mask></defs></svg>