<svg xmlns="http://www.w3.org/2000/svg" version="1.1" xmlns:xlink="http://www.w3.org/1999/xlink" xmlns:svgjs="http://svgjs.com/svgjs" width="1280" height="720" preserveAspectRatio="none" viewBox="0 0 1280 720"><g mask="url(&quot;#SvgjsMask1075&quot;)" fill="none"><rect width="1280" height="720" x="0" y="0" fill="#0e2a47"></rect><path d="M699 300L-64 299" stroke-width="6" stroke="url(#SvgjsLinearGradient1076)" stroke-linecap="round" class="Left"></path><path d="M988 488L494 487" stroke-width="10" stroke="url(#SvgjsLinearGradient1077)" stroke-linecap="round" class="Right"></path><path d="M1230 631L337 630" stroke-width="6" stroke="url(#SvgjsLinearGradient1076)" stroke-linecap="round" class="Left"></path><path d="M619 412L124 411" stroke-width="10" stroke="url(#SvgjsLinearGradient1076)" stroke-linecap="round" class="Left"></path><path d="M1155 293L774 292" stroke-width="10" stroke="url(#SvgjsLinearGradient1077)" stroke-linecap="round" class="Right"></path><path d="M170 168L707 167" stroke-width="8" stroke="url(#SvgjsLinearGradient1077)" stroke-linecap="round" class="Right"></path><path d="M84 581L448 580" stroke-width="10" stroke="url(#SvgjsLinearGradient1076)" stroke-linecap="round" class="Left"></path><path d="M326 420L932 419" stroke-width="6" stroke="url(#SvgjsLinearGradient1077)" stroke-linecap="round" class="Right"></path><path d="M990 233L364 232" stroke-width="10" stroke="url(#SvgjsLinearGradient1077)" stroke-linecap="round" class="Right"></path><path d="M1046 348L249 347" stroke-width="6" stroke="url(#SvgjsLinearGradient1077)" stroke-linecap="round" class="Right"></path><path d="M1059 562L1514 561" stroke-width="6" stroke="url(#SvgjsLinearGradient1077)" stroke-linecap="round" class="Right"></path><path d="M207 393L-337 392" stroke-width="10" stroke="url(#SvgjsLinearGradient1076)" stroke-linecap="round" class="Left"></path><path d="M434 426L-243 425" stroke-width="8" stroke="url(#SvgjsLinearGradient1077)" stroke-linecap="round" class="Right"></path><path d="M265 310L855 309" stroke-width="10" stroke="url(#SvgjsLinearGradient1076)" stroke-linecap="round" class="Left"></path><path d="M773 239L1684 238" stroke-width="10" stroke="url(#SvgjsLinearGradient1076)" stroke-linecap="round" class="Left"></path><path d="M119 646L723 645" stroke-width="10" stroke="url(#SvgjsLinearGradient1076)" stroke-linecap="round" class="Left"></path><path d="M46 313L813 312" stroke-width="6" stroke="url(#SvgjsLinearGradient1076)" stroke-linecap="round" class="Left"></path><path d="M519 359L-200 358" stroke-width="10" stroke="url(#SvgjsLinearGradient1076)" stroke-linecap="round" class="Left"></path></g><defs><mask id="SvgjsMask1075"><rect width="1280" height="720" fill="#ffffff"></rect></mask><linearGradient x1="100%" y1="0%" x2="0%" y2="0%" id="SvgjsLinearGradient1076"><stop stop-color="rgba(28, 83, 142, 0)" offset="0"></stop><stop stop-color="#1c538e" offset="1"></stop></linearGradient><linearGradient x1="0%" y1="0%" x2="100%" y2="0%" id="SvgjsLinearGradient1077"><stop stop-color="rgba(28, 83, 142, 0)" offset="0"></stop><stop stop-color="#1c538e" offset="1"></stop></linearGradient></defs></svg>